<svg version="1.1" id="Layer_1" xmlns="http://www.w3.org/2000/svg" width="264px" height="100px" viewBox="0 0 264 100">
<g id="Layer_1_1_">
</g>
<g id="Monogram">
</g>
<g id="_x33_20_MOCKUP">
</g>
<g id="_x33_20_w_x2F__Menu">
</g>
<g id="Colors">
	<g id="Monogram_copy">
	</g>
	<g>
		<path d="M110.895,38.189c0,8.919-1.182,11.398-6.933,11.398h-4.266V21.593h4.456c6.132,0,6.741,3.719,6.741,11.438v5.158H110.895z
			 M108.607,32.351c0-7.078-0.799-8.759-4.494-8.759h-2.209v23.996h2.133c4.075,0,4.569-1.68,4.569-8.198V32.351z"/>
		<path d="M124.797,39.59c0,3.759,0,10.478-5.826,10.478c-5.447,0-5.789-5.519-5.789-10.478v-8.519c0-5.72,0.914-9.959,5.826-9.959
			c4.875,0,5.789,4.16,5.789,10.238V39.59z M122.512,31.311c0-5.438-0.646-7.958-3.541-7.958c-2.818,0-3.505,2.439-3.505,7.759
			v8.479c0,4.799,0.267,8.238,3.542,8.238c3.237,0,3.504-3.799,3.504-8.238V31.311z"/>
		<path d="M129.865,49.588l-3.352-27.995h2.284l1.257,10.598c0.42,3.56,1.066,10.998,1.182,14.198h0.113
			c0.114-3.2,0.533-7.719,0.99-11.318l1.639-13.478h2.703l1.639,13.157c0.457,3.359,0.99,8.438,1.066,11.639h0.113
			c0.113-3.2,0.8-10.759,1.182-14.038l1.295-10.758h2.285l-3.467,27.995h-2.704l-1.638-13.598c-0.381-3-0.952-9.479-1.028-11.438
			h-0.151c-0.076,1.96-0.762,8.398-1.104,11.559l-1.601,13.478L129.865,49.588L129.865,49.588z"/>
		<path d="M154.775,49.588l-4.188-15.518c-1.028-3.879-1.79-7.318-2.058-8.719h-0.075c0.038,1.16,0.114,6.199,0.114,10.198v14.038
			h-2.209V21.593h3.047l4.074,14.957c0.914,3.359,1.639,6.6,2.133,8.999h0.076c-0.076-2.32-0.076-7.079-0.076-9.999V21.593h2.209
			v27.995H154.775z"/>
		<path d="M160.872,49.588V21.593h2.209v25.995h7.579v2H160.872z"/>
		<path d="M183.802,39.59c0,3.759,0,10.478-5.827,10.478c-5.445,0-5.789-5.519-5.789-10.478v-8.519c0-5.72,0.914-9.959,5.828-9.959
			c4.875,0,5.788,4.16,5.788,10.238V39.59z M181.518,31.311c0-5.438-0.647-7.958-3.543-7.958c-2.817,0-3.504,2.439-3.504,7.759
			v8.479c0,4.799,0.268,8.238,3.543,8.238c3.236,0,3.504-3.799,3.504-8.238V31.311z"/>
		<path d="M188.299,44.108l-0.99,5.479h-2.17l5.18-27.995h2.476l5.181,27.995h-2.324l-0.989-5.479H188.299z M194.316,42.069
			l-1.639-9.559c-0.419-2.479-0.876-5.639-1.143-7.719h-0.114c-0.267,2.12-0.724,5.239-1.144,7.639l-1.637,9.639H194.316z"/>
		<path d="M211.076,38.189c0,8.919-1.182,11.398-6.932,11.398h-4.267V21.593h4.456c6.132,0,6.741,3.719,6.741,11.438L211.076,38.189
			L211.076,38.189z M208.791,32.351c0-7.078-0.8-8.759-4.494-8.759h-2.209v23.996h2.133c4.075,0,4.57-1.68,4.57-8.198V32.351z"/>
		<path d="M118.229,59.592v25.996h-2.209V59.592h-5.295v-1.999h12.606v1.999H118.229z"/>
		<path d="M134.645,85.588V71.471h-6.816v14.117h-2.209V57.593h2.209v11.878h6.816V57.593h2.209v27.995H134.645z"/>
		<path d="M139.902,85.588V57.593h9.064v1.999h-6.855v9.879h6.476v2h-6.476v12.117h7.923v2H139.902z"/>
		<path d="M163.177,80.107l-0.989,5.479h-2.172l5.18-27.995h2.477l5.18,27.995h-2.322l-0.99-5.479H163.177z M169.193,78.068
			l-1.637-9.559c-0.42-2.479-0.877-5.639-1.144-7.719H166.3c-0.267,2.12-0.724,5.239-1.143,7.639l-1.638,9.639H169.193z"/>
		<path d="M179.518,73.71h-2.552v11.878h-2.209V57.593h4.456c4.494,0,6.475,2.319,6.475,7.8
			C185.688,69.591,184.734,73.71,179.518,73.71z M179.213,59.592h-2.247V71.71h2.552c3.81,0,3.885-3.679,3.885-6.317
			C183.402,62.352,183.021,59.592,179.213,59.592z"/>
		<path d="M193.117,73.71h-2.553v11.878h-2.209V57.593h4.457c4.494,0,6.475,2.319,6.475,7.8
			C199.287,69.591,198.335,73.71,193.117,73.71z M192.812,59.592h-2.248V71.71h2.553c3.809,0,3.885-3.679,3.885-6.317
			C197.002,62.352,196.621,59.592,192.812,59.592z"/>
	</g>
	<path d="M77.666,2.732h-62.5c-2.762,0-5,2.238-5,5v83.711c0,2.762,2.238,5,5,5h62.5c2.762,0,5-2.238,5-5V7.732
		C82.666,4.971,80.428,2.732,77.666,2.732z M46.416,5.308c0.383,0,0.693,0.311,0.693,0.693s-0.311,0.693-0.693,0.693
		s-0.693-0.311-0.693-0.693S46.033,5.308,46.416,5.308z M46.416,93.525c-1.21,0-2.191-0.981-2.191-2.191s0.981-2.191,2.191-2.191
		s2.191,0.981,2.191,2.191S47.626,93.525,46.416,93.525z M74.166,87.573h-55.5v-75.97h55.5V87.573z"/>
</g>
<g id="Layer_9">
</g>
<g id="Annotations">
</g>
</svg>
