<svg version="1.1" id="Layer_1" xmlns="http://www.w3.org/2000/svg" width="210px" height="100px" viewBox="0 0 210 100">
<g id="Layer_1">
</g>
<g id="Monogram">
</g>
<g id="_x33_20_MOCKUP">
</g>
<g id="_x33_20_w_x2F__Menu">
</g>
<g id="Colors">
	<g id="Monogram_copy">
	</g>
	<g>
		<path d="M104.894,38.189c0,8.919-1.181,11.398-6.932,11.398h-4.266V21.593h4.456c6.132,0,6.741,3.719,6.741,11.438V38.189z
			 M102.608,32.351c0-7.078-0.8-8.759-4.494-8.759h-2.209v23.996h2.133c4.075,0,4.57-1.68,4.57-8.198V32.351z"/>
		<path d="M118.797,39.59c0,3.759,0,10.478-5.827,10.478c-5.446,0-5.789-5.519-5.789-10.478v-8.519c0-5.72,0.914-9.959,5.827-9.959
			c4.875,0,5.789,4.16,5.789,10.238V39.59z M116.512,31.311c0-5.438-0.647-7.958-3.542-7.958c-2.818,0-3.504,2.439-3.504,7.759
			v8.479c0,4.799,0.267,8.238,3.542,8.238c3.237,0,3.504-3.799,3.504-8.238V31.311z"/>
		<path d="M123.865,49.588l-3.352-27.995h2.285l1.257,10.598c0.419,3.56,1.066,10.998,1.181,14.198h0.114
			c0.114-3.2,0.533-7.719,0.99-11.318l1.638-13.478h2.704l1.638,13.157c0.457,3.359,0.99,8.438,1.066,11.639h0.114
			c0.114-3.2,0.8-10.759,1.181-14.038l1.295-10.758h2.285l-3.466,27.995h-2.704l-1.638-13.598c-0.381-3-0.952-9.479-1.028-11.438
			h-0.152c-0.076,1.96-0.762,8.398-1.104,11.559l-1.6,13.478H123.865z"/>
		<path d="M148.776,49.588l-4.189-15.518c-1.028-3.879-1.79-7.318-2.057-8.719h-0.076c0.038,1.16,0.114,6.199,0.114,10.198v14.038
			h-2.209V21.593h3.047l4.075,14.957c0.914,3.359,1.638,6.6,2.133,8.999h0.076c-0.076-2.32-0.076-7.079-0.076-9.999V21.593h2.209
			v27.995H148.776z"/>
		<path d="M154.872,49.588V21.593h2.209v25.995h7.579v2H154.872z"/>
		<path d="M177.802,39.59c0,3.759,0,10.478-5.827,10.478c-5.446,0-5.789-5.519-5.789-10.478v-8.519c0-5.72,0.914-9.959,5.827-9.959
			c4.875,0,5.789,4.16,5.789,10.238V39.59z M175.517,31.311c0-5.438-0.647-7.958-3.542-7.958c-2.818,0-3.504,2.439-3.504,7.759
			v8.479c0,4.799,0.267,8.238,3.542,8.238c3.237,0,3.504-3.799,3.504-8.238V31.311z"/>
		<path d="M182.299,44.108l-0.99,5.479h-2.171l5.18-27.995h2.476l5.18,27.995h-2.323l-0.99-5.479H182.299z M188.316,42.069
			l-1.638-9.559c-0.419-2.479-0.876-5.639-1.143-7.719h-0.114c-0.267,2.12-0.724,5.239-1.143,7.639l-1.638,9.639H188.316z"/>
		<path d="M205.076,38.189c0,8.919-1.181,11.398-6.932,11.398h-4.266V21.593h4.456c6.132,0,6.741,3.719,6.741,11.438V38.189z
			 M202.791,32.351c0-7.078-0.8-8.759-4.494-8.759h-2.209v23.996h2.133c4.075,0,4.57-1.68,4.57-8.198V32.351z"/>
		<path d="M112.228,59.592v25.996h-2.209V59.592h-5.294v-1.999h12.606v1.999H112.228z"/>
		<path d="M128.645,85.588V71.471h-6.817v14.117h-2.209V57.593h2.209v11.878h6.817V57.593h2.209v27.995H128.645z"/>
		<path d="M133.903,85.588V57.593h9.064v1.999h-6.855v9.879h6.475v2h-6.475v12.117h7.922v2H133.903z"/>
		<path d="M157.177,80.108l-0.99,5.479h-2.171l5.18-27.995h2.476l5.18,27.995h-2.323l-0.99-5.479H157.177z M163.194,78.069
			l-1.638-9.559c-0.419-2.479-0.876-5.639-1.143-7.719H160.3c-0.267,2.12-0.724,5.239-1.143,7.639l-1.638,9.639H163.194z"/>
		<path d="M173.518,73.71h-2.552v11.878h-2.209V57.593h4.456c4.494,0,6.475,2.319,6.475,7.799
			C179.688,69.591,178.735,73.71,173.518,73.71z M173.213,59.592h-2.247V71.71h2.552c3.809,0,3.885-3.679,3.885-6.318
			C177.402,62.352,177.021,59.592,173.213,59.592z"/>
		<path d="M187.117,73.71h-2.552v11.878h-2.209V57.593h4.456c4.494,0,6.475,2.319,6.475,7.799
			C193.287,69.591,192.335,73.71,187.117,73.71z M186.812,59.592h-2.247V71.71h2.552c3.809,0,3.885-3.679,3.885-6.318
			C191.002,62.352,190.621,59.592,186.812,59.592z"/>
	</g>
	<path d="M71.666,2.732h-62.5c-2.762,0-5,2.238-5,5v83.711c0,2.762,2.238,5,5,5h62.5c2.762,0,5-2.238,5-5V7.732
		C76.666,4.971,74.428,2.732,71.666,2.732z M40.416,5.308c0.383,0,0.693,0.311,0.693,0.693s-0.311,0.693-0.693,0.693
		s-0.693-0.311-0.693-0.693S40.033,5.308,40.416,5.308z M40.416,93.525c-1.21,0-2.191-0.981-2.191-2.191s0.981-2.191,2.191-2.191
		s2.191,0.981,2.191,2.191S41.626,93.525,40.416,93.525z M68.166,87.573h-55.5v-75.97h55.5V87.573z"/>
</g>
<g id="Layer_9">
</g>
<g id="Annotations">
</g>
</svg>
