<svg version="1.1" id="Layer_1" xmlns="http://www.w3.org/2000/svg" width="300px" height="41px" viewBox="0 0 300 41">
<g>
	<path fill="none" stroke="#A2573A" stroke-width="1.3" stroke-miterlimit="10" d="M121.017,8.632
		c-6.593,12.02,7.035,28.501,21.053,20.413c-2.514-4.73-4.007-10.977-1.737-18.622C132.223,12.591,125.769,11.093,121.017,8.632z"/>
	<path fill="none" stroke="#A2573A" stroke-width="1.3" stroke-miterlimit="10" d="M159.52,30.736
		c12.884,6.565,31.161-8.312,21.624-23.051c-4.406,2.656-10.328,4.703-17.414,3.541C165.478,18.509,162.888,25.518,159.52,30.736z"
		/>
	<path fill="none" stroke="#A2573A" stroke-width="1.3" stroke-miterlimit="10" d="M189.872,0.001l-78.686,0.084
		c0,0,3.317,5.176,9.83,8.549c1.888-3.443,5.433-6.518,11.102-8.547h13.242c-2.47,3.688-4.078,7.135-5.028,10.338
		c3.254-0.871,6.776-2.33,10.563-4.559c4.598,3.08,8.895,4.714,12.833,5.359c-0.891-3.711-2.903-7.494-6.517-11.143h16.203
		c3.545,2.455,6.061,5.027,7.729,7.602C186.722,4.326,189.872-0.001,189.872,0.001z"/>
	<path fill="none" stroke="#A2573A" stroke-width="1.3" stroke-miterlimit="10" d="M142.07,29.044
		c3.098,5.826,7.747,9.36,8.826,10.381c1.555-0.422,5.436-3.752,8.624-8.69c-3.491-1.778-6.586-5.134-8.624-10.49
		C148.064,24.482,145.058,27.322,142.07,29.044z"/>
</g>
<radialGradient id="SVGID_1_" cx="296.2646" cy="3.7424" r="106.0666" gradientTransform="matrix(1 0 0 1 -146 -3.2422)" gradientUnits="userSpaceOnUse">
	<stop  offset="0" style="stop-color:#FFFFFF;stop-opacity:0.0306"/>
	<stop  offset="0.0231" style="stop-color:#EBDCD5;stop-opacity:0.0758"/>
	<stop  offset="0.0478" style="stop-color:#DABDB1;stop-opacity:0.124"/>
	<stop  offset="0.0756" style="stop-color:#CBA191;stop-opacity:0.1781"/>
	<stop  offset="0.1062" style="stop-color:#BE8A75;stop-opacity:0.238"/>
	<stop  offset="0.1409" style="stop-color:#B4785F;stop-opacity:0.3057"/>
	<stop  offset="0.1814" style="stop-color:#AC694E;stop-opacity:0.3848"/>
	<stop  offset="0.2315" style="stop-color:#A65F43;stop-opacity:0.4825"/>
	<stop  offset="0.3017" style="stop-color:#A35A3C;stop-opacity:0.6195"/>
	<stop  offset="0.4966" style="stop-color:#A2583A"/>
	<stop  offset="0.6941" style="stop-color:#A35A3C;stop-opacity:0.6075"/>
	<stop  offset="0.7653" style="stop-color:#A65F43;stop-opacity:0.4662"/>
	<stop  offset="0.8161" style="stop-color:#AC694E;stop-opacity:0.3654"/>
	<stop  offset="0.8571" style="stop-color:#B4785F;stop-opacity:0.2838"/>
	<stop  offset="0.8923" style="stop-color:#BE8A75;stop-opacity:0.214"/>
	<stop  offset="0.9234" style="stop-color:#CBA191;stop-opacity:0.1522"/>
	<stop  offset="0.9515" style="stop-color:#DABDB1;stop-opacity:0.0963"/>
	<stop  offset="0.9765" style="stop-color:#EBDCD5;stop-opacity:0.0466"/>
	<stop  offset="1" style="stop-color:#FFFFFF;stop-opacity:0"/>
</radialGradient>
<linearGradient id="SVGID_2_" gradientUnits="userSpaceOnUse" x1="145.7646" y1="3.7424" x2="446.7646" y2="3.7424" gradientTransform="matrix(1 0 0 1 -146 -3.2422)">
	<stop  offset="0" style="stop-color:#FFFFFF;stop-opacity:0.0306"/>
	<stop  offset="0.0231" style="stop-color:#EBDCD5;stop-opacity:0.0758"/>
	<stop  offset="0.0478" style="stop-color:#DABDB1;stop-opacity:0.124"/>
	<stop  offset="0.0756" style="stop-color:#CBA191;stop-opacity:0.1781"/>
	<stop  offset="0.1062" style="stop-color:#BE8A75;stop-opacity:0.238"/>
	<stop  offset="0.1409" style="stop-color:#B4785F;stop-opacity:0.3057"/>
	<stop  offset="0.1814" style="stop-color:#AC694E;stop-opacity:0.3848"/>
	<stop  offset="0.2315" style="stop-color:#A65F43;stop-opacity:0.4825"/>
	<stop  offset="0.3017" style="stop-color:#A35A3C;stop-opacity:0.6195"/>
	<stop  offset="0.4966" style="stop-color:#A2583A"/>
	<stop  offset="0.6941" style="stop-color:#A35A3C;stop-opacity:0.6075"/>
	<stop  offset="0.7653" style="stop-color:#A65F43;stop-opacity:0.4662"/>
	<stop  offset="0.8161" style="stop-color:#AC694E;stop-opacity:0.3654"/>
	<stop  offset="0.8571" style="stop-color:#B4785F;stop-opacity:0.2838"/>
	<stop  offset="0.8923" style="stop-color:#BE8A75;stop-opacity:0.214"/>
	<stop  offset="0.9234" style="stop-color:#CBA191;stop-opacity:0.1522"/>
	<stop  offset="0.9515" style="stop-color:#DABDB1;stop-opacity:0.0963"/>
	<stop  offset="0.9765" style="stop-color:#EBDCD5;stop-opacity:0.0466"/>
	<stop  offset="1" style="stop-color:#FFFFFF;stop-opacity:0"/>
</linearGradient>
<rect x="0.265" y="0" fill="url(#SVGID_1_)" stroke="url(#SVGID_2_)" stroke-miterlimit="10" width="300" height="1"/>
</svg>
