<?xml version="1.0" encoding="utf-8"?>
<!-- Generator: Adobe Illustrator 16.0.0, SVG Export Plug-In . SVG Version: 6.00 Build 0)  -->
<!DOCTYPE svg PUBLIC "-//W3C//DTD SVG 1.1//EN" "http://www.w3.org/Graphics/SVG/1.1/DTD/svg11.dtd">
<svg version="1.1" id="Layer_1" xmlns="http://www.w3.org/2000/svg" xmlns:xlink="http://www.w3.org/1999/xlink" x="0px" y="0px"
	 width="300px" height="41.184px" viewBox="0 0 300 41.184" enable-background="new 0 0 300 41.184" xml:space="preserve">
<g>
	<path fill="none" stroke="#777777" stroke-miterlimit="10" d="M140.068,30.76c-2.27-7.646-0.777-13.892,1.737-18.622
		c-14.018-8.088-27.646,8.392-21.053,20.413C125.504,30.09,131.958,28.592,140.068,30.76z"/>
	<path fill="none" stroke="#777777" stroke-miterlimit="10" d="M163.465,29.957c7.086-1.162,13.008,0.885,17.414,3.541
		c9.537-14.739-8.74-29.616-21.624-23.051C162.623,15.665,165.213,22.674,163.465,29.957z"/>
	<path fill="none" stroke="#777777" stroke-miterlimit="10" d="M180.879,33.498c-1.668,2.574-4.184,5.148-7.729,7.602h-16.203
		c3.614-3.65,5.626-7.432,6.517-11.143c-3.938,0.646-8.235,2.281-12.833,5.361c-3.787-2.229-7.309-3.688-10.563-4.559
		c0.95,3.203,2.558,6.65,5.028,10.338h-13.242c-5.669-2.029-9.214-5.105-11.102-8.547c-6.513,3.373-9.83,8.549-9.83,8.549
		l78.685,0.084C189.607,41.184,186.457,36.857,180.879,33.498z"/>
	<path fill="none" stroke="#777777" stroke-miterlimit="10" d="M150.631,20.939c2.038-5.358,5.133-8.712,8.624-10.492
		c-3.188-4.937-7.069-8.267-8.624-8.69c-1.079,1.022-5.728,4.555-8.826,10.381C144.793,13.862,147.8,16.701,150.631,20.939z"/>
</g>
<rect y="40.184" width="300" height="1"/>
</svg>
