<?xml version="1.0" encoding="utf-8"?>
<!-- Generator: Adobe Illustrator 16.0.0, SVG Export Plug-In . SVG Version: 6.00 Build 0)  -->
<!DOCTYPE svg PUBLIC "-//W3C//DTD SVG 1.1//EN" "http://www.w3.org/Graphics/SVG/1.1/DTD/svg11.dtd">
<svg version="1.1" id="Layer_1" xmlns="http://www.w3.org/2000/svg" xmlns:xlink="http://www.w3.org/1999/xlink" x="0px" y="0px"
	 width="300px" height="41.184px" viewBox="0 0 300 41.184" enable-background="new 0 0 300 41.184" xml:space="preserve">
<g>
	<path fill="none" stroke="#A2573A" stroke-width="1.3" stroke-miterlimit="10" d="M140.068,30.76
		c-2.27-7.646-0.777-13.892,1.737-18.622c-14.018-8.088-27.646,8.394-21.053,20.413C125.504,30.09,131.958,28.592,140.068,30.76z"/>
	<path fill="none" stroke="#A2573A" stroke-width="1.3" stroke-miterlimit="10" d="M163.465,29.957
		c7.086-1.162,13.008,0.885,17.414,3.541c9.537-14.739-8.74-29.616-21.624-23.051C162.623,15.665,165.213,22.674,163.465,29.957z"/>
	<path fill="none" stroke="#A2573A" stroke-width="1.3" stroke-miterlimit="10" d="M180.879,33.498
		c-1.668,2.574-4.184,5.146-7.729,7.602h-16.203c3.613-3.648,5.626-7.432,6.517-11.143c-3.938,0.646-8.235,2.279-12.833,5.359
		c-3.787-2.229-7.309-3.688-10.563-4.559c0.95,3.203,2.558,6.65,5.028,10.338h-13.242c-5.669-2.029-9.214-5.104-11.102-8.547
		c-6.513,3.373-9.83,8.549-9.83,8.549l78.686,0.084C189.607,41.184,186.457,36.857,180.879,33.498z"/>
	<path fill="none" stroke="#A2573A" stroke-width="1.3" stroke-miterlimit="10" d="M150.631,20.939
		c2.038-5.356,5.133-8.712,8.624-10.49c-3.188-4.938-7.069-8.269-8.624-8.69c-1.079,1.021-5.728,4.555-8.826,10.381
		C144.793,13.862,147.8,16.701,150.631,20.939z"/>
</g>
<radialGradient id="SVGID_1_" cx="296" cy="5.5012" r="106.0666" gradientTransform="matrix(1 0 0 -1 -146 46.1841)" gradientUnits="userSpaceOnUse">
	<stop  offset="0" style="stop-color:#FFFFFF;stop-opacity:0.0306"/>
	<stop  offset="0.0231" style="stop-color:#EBDCD5;stop-opacity:0.0758"/>
	<stop  offset="0.0478" style="stop-color:#DABDB1;stop-opacity:0.124"/>
	<stop  offset="0.0756" style="stop-color:#CBA191;stop-opacity:0.1781"/>
	<stop  offset="0.1062" style="stop-color:#BE8A75;stop-opacity:0.238"/>
	<stop  offset="0.1409" style="stop-color:#B4785F;stop-opacity:0.3057"/>
	<stop  offset="0.1814" style="stop-color:#AC694E;stop-opacity:0.3848"/>
	<stop  offset="0.2315" style="stop-color:#A65F43;stop-opacity:0.4825"/>
	<stop  offset="0.3017" style="stop-color:#A35A3C;stop-opacity:0.6195"/>
	<stop  offset="0.4966" style="stop-color:#A2583A"/>
	<stop  offset="0.6941" style="stop-color:#A35A3C;stop-opacity:0.6075"/>
	<stop  offset="0.7653" style="stop-color:#A65F43;stop-opacity:0.4662"/>
	<stop  offset="0.8161" style="stop-color:#AC694E;stop-opacity:0.3654"/>
	<stop  offset="0.8571" style="stop-color:#B4785F;stop-opacity:0.2838"/>
	<stop  offset="0.8923" style="stop-color:#BE8A75;stop-opacity:0.214"/>
	<stop  offset="0.9234" style="stop-color:#CBA191;stop-opacity:0.1522"/>
	<stop  offset="0.9515" style="stop-color:#DABDB1;stop-opacity:0.0963"/>
	<stop  offset="0.9765" style="stop-color:#EBDCD5;stop-opacity:0.0466"/>
	<stop  offset="1" style="stop-color:#FFFFFF;stop-opacity:0"/>
</radialGradient>
<linearGradient id="SVGID_2_" gradientUnits="userSpaceOnUse" x1="145.5" y1="5.5012" x2="446.5" y2="5.5012" gradientTransform="matrix(1 0 0 -1 -146 46.1841)">
	<stop  offset="0" style="stop-color:#FFFFFF;stop-opacity:0.0306"/>
	<stop  offset="0.0231" style="stop-color:#EBDCD5;stop-opacity:0.0758"/>
	<stop  offset="0.0478" style="stop-color:#DABDB1;stop-opacity:0.124"/>
	<stop  offset="0.0756" style="stop-color:#CBA191;stop-opacity:0.1781"/>
	<stop  offset="0.1062" style="stop-color:#BE8A75;stop-opacity:0.238"/>
	<stop  offset="0.1409" style="stop-color:#B4785F;stop-opacity:0.3057"/>
	<stop  offset="0.1814" style="stop-color:#AC694E;stop-opacity:0.3848"/>
	<stop  offset="0.2315" style="stop-color:#A65F43;stop-opacity:0.4825"/>
	<stop  offset="0.3017" style="stop-color:#A35A3C;stop-opacity:0.6195"/>
	<stop  offset="0.4966" style="stop-color:#A2583A"/>
	<stop  offset="0.6941" style="stop-color:#A35A3C;stop-opacity:0.6075"/>
	<stop  offset="0.7653" style="stop-color:#A65F43;stop-opacity:0.4662"/>
	<stop  offset="0.8161" style="stop-color:#AC694E;stop-opacity:0.3654"/>
	<stop  offset="0.8571" style="stop-color:#B4785F;stop-opacity:0.2838"/>
	<stop  offset="0.8923" style="stop-color:#BE8A75;stop-opacity:0.214"/>
	<stop  offset="0.9234" style="stop-color:#CBA191;stop-opacity:0.1522"/>
	<stop  offset="0.9515" style="stop-color:#DABDB1;stop-opacity:0.0963"/>
	<stop  offset="0.9765" style="stop-color:#EBDCD5;stop-opacity:0.0466"/>
	<stop  offset="1" style="stop-color:#FFFFFF;stop-opacity:0"/>
</linearGradient>
<rect y="40.183" fill="url(#SVGID_1_)" stroke="url(#SVGID_2_)" stroke-miterlimit="10" width="300" height="1"/>
</svg>
