<?xml version="1.0" encoding="utf-8"?>
<!-- Generator: Adobe Illustrator 16.0.0, SVG Export Plug-In . SVG Version: 6.00 Build 0)  -->
<!DOCTYPE svg PUBLIC "-//W3C//DTD SVG 1.1//EN" "http://www.w3.org/Graphics/SVG/1.1/DTD/svg11.dtd">
<svg version="1.1" id="Layer_1" xmlns="http://www.w3.org/2000/svg" xmlns:xlink="http://www.w3.org/1999/xlink" x="0px" y="0px"
	 width="300px" height="41.184px" viewBox="0 0 300 41.184" enable-background="new 0 0 300 41.184" xml:space="preserve">
<g>
	<path fill="none" stroke="#777777" stroke-miterlimit="10" d="M120.752,8.633c-6.593,12.021,7.035,28.501,21.053,20.413
		c-2.515-4.73-4.007-10.976-1.737-18.622C131.958,12.592,125.504,11.094,120.752,8.633z"/>
	<path fill="none" stroke="#777777" stroke-miterlimit="10" d="M159.255,30.736c12.883,6.565,31.161-8.312,21.624-23.051
		c-4.406,2.656-10.328,4.703-17.414,3.541C165.213,18.51,162.623,25.519,159.255,30.736z"/>
	<path fill="none" stroke="#777777" stroke-miterlimit="10" d="M189.607,0l-78.685,0.084c0,0,3.317,5.176,9.83,8.549
		c1.888-3.441,5.433-6.518,11.102-8.547h13.242c-2.471,3.688-4.078,7.135-5.028,10.338c3.255-0.871,6.776-2.33,10.563-4.559
		c4.599,3.08,8.896,4.715,12.833,5.361c-0.891-3.711-2.903-7.492-6.517-11.143h16.203c3.545,2.453,6.061,5.027,7.729,7.602
		C186.457,4.326,189.607,0,189.607,0z"/>
	<path fill="none" stroke="#777777" stroke-miterlimit="10" d="M141.805,29.046c3.099,5.826,7.747,9.358,8.826,10.381
		c1.555-0.424,5.437-3.754,8.624-8.69c-3.491-1.78-6.586-5.134-8.624-10.492C147.8,24.482,144.793,27.321,141.805,29.046z"/>
</g>
<rect width="300" height="1"/>
</svg>
