<svg version="1.1" id="Layer_1" xmlns="http://www.w3.org/2000/svg" width="100px" height="100px" viewBox="0 0 100 100">
<g>
	<circle fill="none" cx="42.519" cy="94.316" r="2.326"/>
	<circle fill="none" cx="42.519" cy="3.731" r="0.736"/>
	<rect x="13.06" y="9.678" fill="none" width="58.917" height="80.646"/>
	<path opacity="0.6" fill="#FFFFFF" d="M75.691,0.26H9.345c-2.932,0-5.308,2.375-5.308,5.308v88.864
		c0,2.935,2.375,5.312,5.308,5.312h66.346c2.933,0,5.309-2.377,5.309-5.312V5.568C81,2.637,78.624,0.26,75.691,0.26z M42.519,2.995
		c0.406,0,0.735,0.33,0.735,0.735s-0.33,0.736-0.735,0.736c-0.405,0-0.735-0.331-0.735-0.736S42.112,2.995,42.519,2.995z
		 M42.519,96.643c-1.285,0-2.326-1.041-2.326-2.326c0-1.282,1.041-2.323,2.326-2.323c1.284,0,2.325,1.041,2.325,2.323
		C44.844,95.602,43.803,96.643,42.519,96.643z M71.977,90.324H13.06V9.678h58.917V90.324z"/>
</g>
</svg>
