<svg version="1.1" id="Layer_1" xmlns="http://www.w3.org/2000/svg" width="100px" height="100px" viewBox="0 0 100 100">
<g id="Layer_1_1_">
</g>
<g id="Monogram">
</g>
<g id="_x33_20_MOCKUP">
</g>
<g id="_x33_20_w_x2F__Menu">
</g>
<g id="Monogram_copy">
</g>
<g>
	<circle fill="none" cx="42.519" cy="94.316" r="2.326"/>
	<circle fill="none" cx="42.519" cy="3.731" r="0.736"/>
	<rect x="13.06" y="9.678" fill="none" width="58.917" height="80.646"/>
	<path d="M75.692,0.26H9.345c-2.932,0-5.308,2.375-5.308,5.308v88.864c0,2.932,2.375,5.309,5.308,5.309h66.347
		c2.932,0,5.308-2.377,5.308-5.309V5.568C81,2.637,78.624,0.26,75.692,0.26z M42.519,2.995c0.406,0,0.735,0.33,0.735,0.735
		s-0.33,0.736-0.735,0.736s-0.735-0.331-0.735-0.736S42.112,2.995,42.519,2.995z M42.519,96.642c-1.285,0-2.326-1.04-2.326-2.325
		s1.041-2.326,2.326-2.326c1.284,0,2.325,1.041,2.325,2.326S43.803,96.642,42.519,96.642z M71.977,90.324H13.06V9.678h58.917V90.324
		z"/>
</g>
<g id="Layer_9">
</g>
<g id="Annotations">
</g>
</svg>
