<svg version="1.1" id="Layer_1" xmlns="http://www.w3.org/2000/svg" width="209px" height="39px" viewBox="0 0 209 39">
<g>
	<path fill="#FFFFFF" d="M47.433,5.7h1.992c1.368,0,2.652,0.456,2.652,2.064c0,1.067-0.492,1.703-1.524,1.908v0.023
		c1.056,0.191,1.776,0.888,1.776,1.992c0,1.824-1.488,2.388-3.228,2.388h-1.668V5.7z M48.261,13.356h0.864
		c1.116,0,2.376-0.301,2.376-1.633c0-1.487-1.284-1.644-2.508-1.644h-0.732V13.356z M48.285,9.36h0.924
		c0.876,0,2.04-0.229,2.04-1.561c0-1.212-1.116-1.38-1.824-1.38h-1.14V9.36z"/>
	<path fill="#FFFFFF" d="M54.345,5.7h2.16c1.488,0,2.46,0.636,2.46,2.172c0,1.08-0.828,1.801-1.86,1.932v0.024
		c0.672,0.084,0.816,0.444,1.08,1.008l1.428,3.24h-0.912l-1.212-2.832c-0.48-1.08-0.84-1.116-1.632-1.116h-0.684v3.948h-0.828V5.7z
		 M55.172,9.408h0.876c0.972,0,2.088-0.372,2.088-1.536c0-1.368-0.972-1.452-2.112-1.452h-0.852V9.408z"/>
	<path fill="#FFFFFF" d="M61.028,5.7h0.828v8.376h-0.828V5.7z"/>
	<path fill="#FFFFFF" d="M69.681,10.261h-1.944V9.54h2.772v4.164c-0.852,0.372-1.68,0.516-2.604,0.516
		c-2.64,0-4.224-1.74-4.224-4.332c0-2.543,1.632-4.332,4.224-4.332c0.636,0,1.68,0.108,2.244,0.396L70.053,6.72
		c-0.648-0.359-1.416-0.443-2.148-0.443c-2.172,0-3.396,1.535-3.396,3.611c0,2.112,1.188,3.612,3.396,3.612
		c0.516,0,1.38-0.06,1.776-0.3V10.261z"/>
	<path fill="#FFFFFF" d="M72.776,5.7h0.828v3.708h4.236V5.7h0.828v8.376H77.84v-3.948h-4.236v3.948h-0.828V5.7z"/>
	<path fill="#FFFFFF" d="M83.456,5.7h0.936l3.324,8.376h-0.864l-0.9-2.244h-4.224l-0.9,2.244h-0.804L83.456,5.7z M83.864,6.492
		l-1.824,4.62h3.636L83.864,6.492z"/>
	<path fill="#FFFFFF" d="M89.048,5.7h1.284l3.06,7.368L96.464,5.7h1.188v8.376h-0.828V6.528H96.8l-3.048,7.548h-0.708L89.9,6.528
		h-0.024v7.548h-0.828V5.7z"/>
	<path fill="#FFFFFF" d="M105.56,10.524L102.452,5.7h0.96l2.556,4.092l2.629-4.092h0.899l-3.108,4.824v3.552h-0.828V10.524z"/>
	<path fill="#FFFFFF" d="M114.116,5.556c2.52,0,3.707,2.064,3.684,4.332c-0.023,2.568-1.271,4.332-3.684,4.332
		s-3.66-1.764-3.685-4.332C110.407,7.62,111.596,5.556,114.116,5.556z M111.26,9.888c0,1.776,0.888,3.612,2.856,3.612
		c1.967,0,2.855-1.836,2.855-3.612c0-1.775-0.889-3.611-2.855-3.611C112.147,6.276,111.26,8.112,111.26,9.888z"/>
	<path fill="#FFFFFF" d="M125.636,11.147c0,2.473-1.812,3.072-3.036,3.072s-3.036-0.6-3.036-3.072V5.7h0.828v5.447
		c0,1.369,0.756,2.353,2.208,2.353s2.208-0.983,2.208-2.353V5.7h0.828V11.147z"/>
	<path fill="#FFFFFF" d="M127.663,5.7h1.045l4.26,7.368h0.023V5.7h0.828v8.376h-1.115l-4.188-7.224h-0.024v7.224h-0.828V5.7z"/>
	<path fill="#FFFFFF" d="M141.655,10.261h-1.943V9.54h2.771v4.164c-0.852,0.372-1.68,0.516-2.604,0.516
		c-2.641,0-4.225-1.74-4.225-4.332c0-2.543,1.633-4.332,4.225-4.332c0.636,0,1.68,0.108,2.244,0.396l-0.096,0.768
		c-0.648-0.359-1.416-0.443-2.148-0.443c-2.172,0-3.396,1.535-3.396,3.611c0,2.112,1.188,3.612,3.396,3.612
		c0.516,0,1.38-0.06,1.775-0.3V10.261z"/>
	<path fill="#FFFFFF" d="M154.22,11.147c0,2.473-1.812,3.072-3.037,3.072c-1.223,0-3.035-0.6-3.035-3.072V5.7h0.828v5.447
		c0,1.369,0.756,2.353,2.207,2.353c1.453,0,2.209-0.983,2.209-2.353V5.7h0.828V11.147z"/>
	<path fill="#FFFFFF" d="M156.247,5.7h1.043l4.262,7.368h0.023V5.7h0.828v8.376h-1.117l-4.188-7.224h-0.023v7.224h-0.828V5.7z"/>
	<path fill="#FFFFFF" d="M164.396,5.7h0.828v8.376h-0.828V5.7z"/>
	<path fill="#FFFFFF" d="M170.358,14.076h-0.889L166.351,5.7h0.877l2.699,7.548l2.795-7.548h0.816L170.358,14.076z"/>
	<path fill="#FFFFFF" d="M174.786,5.7h4.105v0.72h-3.277v2.988h3.109v0.72h-3.109v3.229h3.42v0.72h-4.248V5.7z"/>
	<path fill="#FFFFFF" d="M180.954,5.7h2.16c1.488,0,2.461,0.636,2.461,2.172c0,1.08-0.828,1.801-1.861,1.932v0.024
		c0.672,0.084,0.816,0.444,1.08,1.008l1.43,3.24h-0.912l-1.213-2.832c-0.48-1.08-0.84-1.116-1.633-1.116h-0.684v3.948h-0.828V5.7z
		 M181.782,9.408h0.877c0.971,0,2.088-0.372,2.088-1.536c0-1.368-0.973-1.452-2.113-1.452h-0.852V9.408z"/>
	<path fill="#FFFFFF" d="M187.519,13.009c0.492,0.312,1.068,0.491,1.848,0.491c1.033,0,1.885-0.528,1.885-1.716
		c0-1.645-3.84-1.848-3.84-4.044c0-1.345,1.176-2.185,2.652-2.185c0.406,0,1.066,0.061,1.643,0.276l-0.131,0.756
		c-0.373-0.204-0.961-0.312-1.525-0.312c-0.863,0-1.811,0.359-1.811,1.439c0,1.68,3.84,1.692,3.84,4.141
		c0,1.691-1.453,2.363-2.748,2.363c-0.816,0-1.453-0.168-1.896-0.359L187.519,13.009z"/>
	<path fill="#FFFFFF" d="M193.782,5.7h0.828v8.376h-0.828V5.7z"/>
	<path fill="#FFFFFF" d="M198.259,6.42h-2.473V5.7h5.771v0.72h-2.471v7.656h-0.828V6.42z"/>
	<path fill="#FFFFFF" d="M205.062,10.524L201.954,5.7h0.961l2.555,4.092l2.629-4.092h0.9l-3.109,4.824v3.552h-0.828V10.524z"/>
</g>
<path fill="#FFFFFF" d="M47.468,20.436h4.48l3.32,10.58h0.04l3.32-10.58h4.48v13.959h-2.68v-11.52h-0.04l-3.76,11.52h-2.68
	l-3.76-11.52l-0.04,0.041v11.479h-2.68V20.436z"/>
<path fill="#FFFFFF" d="M66.248,20.436h2.8v8.061c0,2.379,0.76,3.939,2.9,3.939c2.14,0,2.9-1.561,2.9-3.939v-8.061h2.8v8.92
	c0,3.74-2.12,5.279-5.7,5.279c-3.58,0-5.7-1.539-5.7-5.279V20.436z"/>
<path fill="#FFFFFF" d="M88.287,22.997c-0.88-0.381-1.86-0.602-2.84-0.602c-0.96,0-2.2,0.42-2.2,1.941c0,2.42,6.12,1.398,6.12,6.08
	c0,3.059-2.42,4.219-5.24,4.219c-1.52,0-2.2-0.199-3.58-0.539l0.26-2.52c0.96,0.52,2.06,0.859,3.16,0.859
	c1.06,0,2.48-0.541,2.48-1.801c0-2.66-6.12-1.559-6.12-6.18c0-3.119,2.42-4.26,4.88-4.26c1.2,0,2.32,0.16,3.34,0.5L88.287,22.997z"
	/>
<path fill="#FFFFFF" d="M91.907,20.436h8.24v2.199h-5.44v3.441h4.98v2.199h-4.98v3.92h5.479v2.199h-8.279V20.436z"/>
<path fill="#FFFFFF" d="M102.927,20.436h2.801v8.061c0,2.379,0.76,3.939,2.9,3.939c2.139,0,2.899-1.561,2.899-3.939v-8.061h2.8v8.92
	c0,3.74-2.12,5.279-5.699,5.279c-3.58,0-5.701-1.539-5.701-5.279V20.436z"/>
<path fill="#FFFFFF" d="M117.467,20.436h4.479l3.32,10.58h0.04l3.319-10.58h4.48v13.959h-2.68v-11.52h-0.04l-3.761,11.52h-2.68
	l-3.76-11.52l-0.04,0.041v11.479h-2.68V20.436z"/>
<path fill="#FFFFFF" d="M148.065,20.196c4.381,0,6.842,2.959,6.842,7.18s-2.42,7.26-6.842,7.26c-4.479,0-6.839-2.98-6.839-7.26
	S143.626,20.196,148.065,20.196z M148.065,32.436c2.861,0,3.922-2.541,3.922-5.061c0-2.459-1.141-4.98-3.922-4.98
	c-2.779,0-3.919,2.521-3.919,4.98C144.146,29.895,145.206,32.436,148.065,32.436z"/>
<path fill="#FFFFFF" d="M157.466,20.436h7.76v2.199h-4.959v3.441h4.719v2.199h-4.719v6.119h-2.801V20.436z"/>
<path fill="#FFFFFF" d="M177.026,20.436h3.16l5.479,13.959h-3.1l-1.199-3.199h-5.66l-1.221,3.199h-2.898L177.026,20.436z
	 M178.565,23.235h-0.039l-2.02,5.762h4.08L178.565,23.235z"/>
<path fill="#FFFFFF" d="M187.226,20.436h3.02c3,0,6.58-0.1,6.58,3.779c0,1.641-1.1,3-2.879,3.24v0.041
	c0.76,0.059,1.199,0.818,1.48,1.439l2.238,5.459h-3.119l-1.68-4.359c-0.4-1.039-0.76-1.439-1.939-1.439h-0.9v5.799h-2.801V20.436z
	 M190.026,26.395h0.92c1.379,0,2.959-0.199,2.959-1.939c0-1.68-1.559-1.82-2.959-1.82h-0.92V26.395z"/>
<path fill="#FFFFFF" d="M201.87,22.635h-4v-2.199h10.799v2.199h-4v11.76h-2.799V22.635z"/>
<path fill="#FFFFFF" d="M19.322,0C8.651,0,0,8.65,0,19.322c0,10.672,8.651,19.323,19.322,19.323s19.322-8.65,19.322-19.323
	C38.645,8.65,29.994,0,19.322,0z M22.539,5.833c0.228,0.373,1.934,1.293,2.6,1.574c8.679,3.648,9.139,12.654,2.332,16.23
	c-2.422,1.273-5.686,1.695-6.805,3.637c-0.217,0.377-0.308,0.57-0.312,0.535c-0.166-1.33-0.067-3.213,2.298-5.086
	c1.731-1.373,8.131-7.701,1.55-14.513C23.028,6.995,22.434,5.661,22.539,5.833z M18.393,35.618c0,0,0.007,0.205-0.222-0.604
	c-0.896-3.166-4.172-3.525-6.014-4.41c-3.671-1.758-6.148-6.025-6.071-9.471c0.031-1.406,0.067-0.223,0.467,0.424
	c0.963,1.559,1.959,3.012,6.795,4.945C19.281,28.875,18.713,31.926,18.393,35.618z M18.541,27.813
	c-0.004,0.031-0.096-0.16-0.313-0.537c-1.122-1.939-4.364-2.355-6.789-3.625c-6.812-3.566-6.367-12.574,2.306-16.235
	c0.665-0.28,2.37-1.204,2.596-1.577c0.104-0.173-0.487,1.162-1.658,2.379c-6.57,6.824-0.16,13.14,1.575,14.511
	C18.625,24.598,18.705,26.479,18.541,27.813z M19.438,24.717c-0.458-2.516-2.286-5.076-3.09-6.177
	c-1.56-2.139-1.334-5.119,0.669-8.389c1.192-1.946,1.634-2.698,2.343-5.936c0.043-0.199,0.083-0.447,0.078-0.485
	c-0.004,0.038,0.034,0.286,0.078,0.485c0.708,3.237,1.15,3.989,2.342,5.936c2.004,3.27,2.229,6.25,0.669,8.389
	c-0.803,1.101-2.566,3.33-3.023,5.845C19.479,24.53,19.435,24.827,19.438,24.717z M26.718,30.604
	c-1.841,0.885-5.117,1.244-6.014,4.41c-0.229,0.809-0.221,0.604-0.221,0.604c-0.321-3.691-0.889-6.742,5.044-9.115
	c4.835-1.934,5.832-3.387,6.795-4.945c0.4-0.646,0.436-1.83,0.467-0.424C32.867,24.579,30.39,28.846,26.718,30.604z"/>
</svg>
