<svg version="1.1" id="Layer_1" xmlns="http://www.w3.org/2000/svg" width="250px" height="65px" viewBox="0 0 250 65">
<g>
	<path fill="#A2573A" d="M73.439,47.965c-5.258,0-6.949-3.938-6.949-8.017v-3.265h2.697V39.9c0,3.072,1.28,5.567,4.16,5.567
		c3.108,0,4.571-2.159,4.571-4.993c0-3.358-1.279-5.375-3.062-7.248l-4.022-4.225c-2.195-2.304-3.475-5.04-3.475-7.776
		c0-6.097,3.291-8.017,6.583-8.017c3.383,0,6.08,3.216,6.08,7.345v2.88h-2.606v-2.353c0-2.64-1.279-5.185-3.52-5.185
		c-2.926,0-3.84,1.729-3.84,5.185c0,2.209,1.143,4.177,2.469,5.521l4.068,4.225c2.194,2.256,4.022,4.944,4.022,9.36
		C80.616,44.941,78.011,47.965,73.439,47.965z"/>
	<path fill="#A2573A" d="M86.238,40.812l-1.189,6.576h-2.605l6.218-33.603h2.971l6.218,33.603h-2.789l-1.188-6.576H86.238z
		 M93.461,38.365l-1.966-11.474c-0.503-2.976-1.052-6.769-1.371-9.265h-0.138c-0.32,2.544-0.868,6.289-1.371,9.169l-1.966,11.569
		L93.461,38.365L93.461,38.365z"/>
	<path fill="#A2573A" d="M113.392,35.436v1.969c0,5.568-1.554,10.562-6.948,10.562c-6.264,0-6.995-5.809-6.995-12.528V25.259
		c0-7.104,1.188-12.049,6.995-12.049c4.937,0,6.857,4.176,6.857,9.457v1.872h-2.743v-1.921c0-2.928-0.641-6.721-4.114-6.721
		c-3.154,0-4.252,2.593-4.252,8.065v12.913c0,5.712,1.188,8.4,4.252,8.4c3.383,0,4.205-3.744,4.205-8.018v-1.824h2.743V35.436z"/>
	<path fill="#A2573A" d="M127.562,47.389c-0.457-0.623-0.914-2.496-0.914-4.703v-5.953c0-3.072-0.869-5.474-3.611-5.474h-3.565
		v16.13h-2.652V13.787h5.943c3.428,0,7.086,0.912,7.086,8.929c0,5.185-1.738,6.528-3.521,7.152v0.048
		c1.874,0.96,3.017,2.641,3.017,5.761v6.912c0,2.112,0.504,4.129,1.006,4.802h-2.789V47.389z M122.67,16.186h-3.199V28.86h3.383
		c2.24,0,4.251-1.248,4.251-6.145C127.104,17.002,125.002,16.186,122.67,16.186z"/>
	<path fill="#A2573A" d="M133.092,47.389V13.787h10.881v2.399h-8.229v11.857h7.771v2.4h-7.771v14.545h9.509v2.4H133.092
		L133.092,47.389z"/>
	<path fill="#A2573A" d="M161.893,33.708c0,10.705-1.418,13.683-8.322,13.683h-5.118V13.787h5.349c7.359,0,8.092,4.464,8.092,13.729
		V33.708L161.893,33.708z M159.148,26.7c0-8.497-0.961-10.514-5.396-10.514h-2.651v28.803h2.561c4.893,0,5.486-2.017,5.486-9.841
		V26.7L159.148,26.7z"/>
	<path fill="#A2573A" d="M186.163,47.389V45.9l-0.045-0.047c-0.869,1.295-2.24,2.16-4.345,2.111
		c-5.942-0.191-6.994-4.753-6.994-12.576V25.164c0-6.961,1.144-11.953,6.949-11.953c6.217,0,6.674,5.473,6.674,10.465h-2.696
		c0-5.041-0.502-7.777-4.022-7.777s-4.16,3.072-4.16,10.321v9.169c0,7.152,0.961,9.889,4.252,9.889c2.147,0,4.115-0.672,4.115-5.855
		v-7.297h-4.572v-2.448h7.131v17.714h-2.286V47.389z"/>
	<path fill="#A2573A" d="M192.425,47.389V13.787h2.65v33.604h-2.65V47.389z"/>
	<path fill="#A2573A" d="M201.384,16.186v12.338h7.726v2.399h-7.726v16.466h-2.651V13.787h11.338v2.399H201.384z"/>
	<path fill="#A2573A" d="M221.357,16.186v31.203h-2.649V16.186h-6.354v-2.399h15.133v2.399H221.357z"/>
	<path fill="#A2573A" d="M235.805,47.965c-5.259,0-6.949-3.938-6.949-8.017v-3.265h2.696V39.9c0,3.072,1.279,5.567,4.16,5.567
		c3.106,0,4.57-2.159,4.57-4.993c0-3.358-1.279-5.375-3.062-7.248l-4.021-4.225c-2.195-2.304-3.475-5.04-3.475-7.776
		c0-6.097,3.291-8.017,6.582-8.017c3.383,0,6.08,3.216,6.08,7.345v2.88h-2.605v-2.353c0-2.64-1.279-5.185-3.52-5.185
		c-2.927,0-3.841,1.729-3.841,5.185c0,2.209,1.144,4.177,2.47,5.521l4.067,4.225c2.192,2.256,4.021,4.944,4.021,9.36
		C242.979,44.941,240.374,47.965,235.805,47.965z"/>
</g>
<path fill="#A2573A" d="M19.069,32.307c-1.282-0.469-2.375-1.416-3.132-2.633c-0.312-0.617-0.489-1.297-0.596-1.977
	c-0.035-0.228-0.062-0.455-0.074-0.687c-0.006-0.096-0.01-0.273-0.019-0.402c-0.104-0.02-0.203-0.057-0.31-0.068
	c-0.074-0.008-0.151-0.012-0.228-0.014c0.085,0.832,0.305,1.633,0.636,2.365c0.068,0.172,0.14,0.34,0.223,0.504
	c0.165,0.324,0.362,0.629,0.585,0.916c0.151,0.195,0.313,0.385,0.489,0.559c0.04,0.039,0.088,0.072,0.13,0.109
	c0.643,0.652,1.401,1.162,2.241,1.471c0.577,0.211,1.181,0.328,1.784,0.357c1.983,0.096,3.975-0.752,5.077-2.291
	c1.467-2.047,1.129-5.043-0.739-6.543c-0.81-0.648-1.946-0.957-3.044-0.824c0.012-0.016,0.022-0.029,0.034-0.045
	c-0.054,0.014-0.111,0.043-0.135,0.084c-0.03,0.053-0.05,0.107-0.074,0.162c0.007-0.006,0.014-0.014,0.02-0.021
	c0.054-0.008,0.105-0.02,0.161-0.027c1.059-0.131,2.16,0.166,2.941,0.793c1.807,1.449,2.133,4.35,0.711,6.334
	C24.353,32.381,21.48,33.188,19.069,32.307z"/>
<path fill="#A2573A" d="M19.184,25.452c-0.039,0.07-0.075,0.141-0.081,0.221c-0.003,0.033-0.013,0.064-0.025,0.092
	c0.006-0.004,0.013-0.008,0.019-0.012c-0.189,1.121,0.263,2.303,1.01,3.008c0.965,0.908,2.167,0.912,3.218,0.012l-0.004-0.004
	c0.096-0.082,0.175-0.186,0.229-0.303c0.021-0.045,0.033-0.098,0.038-0.141c0.021-0.188-0.097-0.451-0.312-0.303
	c-0.148,0.102-0.183,0.262-0.209,0.43c-0.03,0.184-0.095,0.35-0.226,0.486c-0.887,0.547-1.844,0.451-2.629-0.289
	c-0.746-0.703-1.188-1.904-0.941-3.012c0.012-0.01,0.024-0.018,0.036-0.025c-0.001-0.014-0.003-0.029-0.001-0.045
	c0-0.006-0.002-0.025-0.003-0.037c-0.003-0.006-0.005-0.008,0-0.006l0,0c-0.005-0.004-0.01-0.008-0.015-0.01
	C19.254,25.491,19.219,25.471,19.184,25.452z"/>
<path fill="#A2573A" d="M51.689,35.295c0,0-0.636-0.365-1.681-0.691c-0.711,0.781-1.57,1.406-2.523,1.857
	c3.22,2.303,4.05,7.021,4.051,7.027c0.394,2.555-0.077,5.227-1.158,7.568c-0.718,1.555-2.431,3.219-3.87,4.102
	c-2.828,1.732-6.83,1.865-9.953,0.939c-3.207-0.951-5.882-3.011-7.936-5.625c-0.535-0.681-1.037-1.404-1.484-2.146
	c-0.842-1.395-1.683-3.168-1.941-4.807c-2.02-12.777,7.655-16.109,7.664-16.113c-1.265,0.434-2.51,0.398-3.736,1.168
	c-2.966,1.865-5.264,5.701-6.111,9.006c-0.404,1.572-0.504,3.201-0.409,4.818c0.183,3.121,0.854,6.324,2.513,9.016
	c1.638,2.658,4.248,4.586,7.102,5.773c0.776,0.323,1.58,0.582,2.399,0.778c0.819,0.197,1.663,0.32,2.505,0.371
	c0.925,0.056,1.889,0.033,2.808-0.09c2.74-0.365,5.308-1.375,7.586-2.938c0.689-0.474,1.354-0.992,1.984-1.543
	c0.704-0.613,1.364-1.285,1.974-1.992c1.409-1.638,2.52-3.594,3.214-5.642C54.687,46.125,57.226,38.631,51.689,35.295z"/>
<path fill="#A2573A" d="M49.377,35.866c0,0-11.683,7.295-12.264,7.166c-0.58-0.13-0.74-0.214-0.74-0.214l13.632-8.217L49.377,35.866
	z"/>
<path fill="#A2573A" d="M51.4,36.594c0,0-12.422,7.92-13.003,7.793c-0.581-0.129,0.026-0.389,0.026-0.389l13.633-8.217L51.4,36.594z
	"/>
<path fill="#A2573A" d="M49.783,23.026c-0.417-0.941-1.324-1.684-2.366-1.932c-0.956-0.229-1.88-0.035-2.6,0.553
	c-0.623,0.506-0.973,1.375-0.911,2.268c0.059,0.844,0.464,1.557,1.113,1.951c0.573,0.348,1.409,0.322,2.033-0.061
	c0.529-0.324,0.808-0.842,0.764-1.416c-0.062-0.82-0.846-1.326-1.54-1.326H46.27c-0.507,0.002-1.066,0.287-1.12,1.082l0.208,0.014
	c0.037-0.553,0.378-0.885,0.913-0.887c0.603-0.002,1.284,0.43,1.338,1.133c0.037,0.494-0.205,0.941-0.665,1.223
	c-0.561,0.344-1.308,0.369-1.815,0.061c-0.592-0.359-0.962-1.012-1.015-1.787c-0.057-0.826,0.263-1.629,0.834-2.094
	c0.668-0.543,1.528-0.725,2.42-0.512c0.98,0.234,1.833,0.93,2.226,1.814c0.17,0.387,0.262,0.793,0.287,1.203
	c-0.033,1.031-0.359,2.766-2.081,3.5c0.274,0.357-0.099,0.072,0.336,0.5c0,0,1.409-0.652,1.774-2.541
	C50.187,24.872,50.17,23.899,49.783,23.026z"/>
<path fill="#A2573A" d="M34.461,39.958c-0.701-0.424-1.577-0.776-2.201-1.308c-0.841-0.713-1.536-1.69-2.007-2.686
	c-1.08-2.281-0.973-5.084,0.983-6.857c0.308-0.279,0.638-0.539,0.987-0.777c-0.147-0.24-0.293-0.482-0.436-0.725
	c-0.271,0.164-0.539,0.334-0.8,0.512c-0.276,0.188-0.546,0.383-0.809,0.588c-0.232,0.182-0.459,0.373-0.677,0.574
	c-0.679,0.623-1.3,1.322-1.791,2.104c-0.856,1.365-1.522,3.138-1.046,4.757c1.53,7.635,10.933,6.379,12.068,11.25
	c0.687,2.946-0.368,4.469-1.308,5.211c-0.392,0.271-1.157,0.592-2.324,0.205c-0.106-0.048-0.209-0.099-0.306-0.156
	c-0.8-0.492-1.023-1.285-0.613-2.181c0.208-0.452,0.623-0.768,1.086-0.823c0.411-0.049,0.786,0.112,1.056,0.455
	c0.286,0.36,0.372,0.858,0.214,1.235c-0.07,0.168-0.217,0.369-0.508,0.47c-0.021-0.105-0.12-0.203-0.257-0.242
	c-0.179-0.049-0.355,0.021-0.396,0.158c-0.038,0.139,0.075,0.291,0.255,0.342c0.091,0.026,0.183,0.021,0.254-0.01
	c0.398-0.064,0.696-0.287,0.844-0.638c0.186-0.444,0.089-1.026-0.242-1.444c-0.312-0.396-0.767-0.591-1.244-0.533
	c-0.534,0.065-1.014,0.426-1.251,0.942c-0.453,0.986-0.192,1.9,0.694,2.445c0.437,0.268,0.988,0.416,1.546,0.416
	c0.023,0,0.048-0.004,0.071-0.004c4.762-0.447,3.512-6.765,3.512-6.765C39.243,43.62,36.854,41.407,34.461,39.958z"/>
<path fill="#A2573A" d="M41.102,32.631c1.637-1.279,3.47-2.285,5.27-3.316c0.562-0.322,1.168-0.646,1.764-1.002
	c-0.435-0.428-0.062-0.143-0.336-0.5c-0.19,0.102-0.391,0.184-0.599,0.246c-1.02,0.316-2.222,0.123-3.102-0.48
	c-0.728-0.498-1.23-1.268-1.425-2.125c-0.178-0.777-0.213-1.586-0.03-2.365c0.084-0.359,0.217-0.789,0.471-1.078
	c-0.002-0.014-0.008-0.027-0.019-0.041c-0.007-0.01-0.019-0.016-0.028-0.022c-0.083,0.025-0.167,0.053-0.239,0.098
	c-0.241,0.148-0.389,0.402-0.562,0.615c-0.178,0.223-0.386,0.432-0.604,0.615c-0.455,0.381-0.989,0.682-1.538,0.904
	c-0.316,0.127-0.641,0.236-0.969,0.328c-0.308,0.088-0.617,0.162-0.928,0.23c-1.133,0.252-2.235,0.514-3.305,0.971
	c-0.646,0.275-1.275,0.59-1.89,0.936c0.14,0.236,0.28,0.471,0.424,0.705c0.941-0.561,1.988-0.951,3.062-1.088
	c0.521-0.066,1.047-0.09,1.57-0.053c1.417,0.098,2.378,0.838,3.136,2.109c0.78,1.311,0.765,2.143-0.024,3.053
	c-0.211,0.244-0.413,0.49-0.581,0.746c0,0-0.486,0.709-0.793,1.539c-0.109,0.219-0.188,0.456-0.229,0.706
	c-0.095,0.589,0.031,1.156,0.354,1.601c0.331,0.455,0.886,0.729,1.483,0.736h0.02c0.58,0,1.1-0.25,1.43-0.685
	c0.404-0.535,0.263-1.342-0.101-1.783c-0.317-0.387-0.761-0.479-1.217-0.258c-0.473,0.23-0.643,0.855-0.504,1.293
	c0.123,0.387,0.445,0.576,0.864,0.51l-0.033-0.205c-0.43,0.068-0.58-0.202-0.633-0.368c-0.11-0.347,0.025-0.859,0.397-1.041
	c0.494-0.242,0.816,0.021,0.964,0.2c0.314,0.384,0.428,1.089,0.096,1.525c-0.293,0.389-0.76,0.603-1.281,0.603
	c-0.533-0.007-1.024-0.248-1.317-0.648c-0.172-0.235-0.279-0.512-0.322-0.809C39.7,33.898,40.74,32.93,41.102,32.631z"/>
<path fill="#A2573A" d="M35.892,25.276c-0.147-1.469-0.599-2.959-1.326-4.246c-0.271-0.48-0.588-0.926-0.944-1.334
	c-0.876-1-1.993-1.764-3.276-2.213c-0.479-0.166-0.982-0.289-1.482-0.373c-0.528-0.088-1.069-0.133-1.605-0.146
	c-0.551-0.014-1.104,0.006-1.653,0.051c-0.053,0.006-0.264,0.02-0.681,0.135l-0.236-1.646c0.224-0.137,0.445-0.273,0.669-0.408
	c0.553-0.332,1.097-0.678,1.647-1.012c0.709-0.43,1.407-0.875,2.112-1.309c0.693-0.424,1.373-0.863,2.058-1.299
	c1.298-0.828,2.672-1.812,3.346-3.25c0.538-1.148,0.734-2.715,0.131-3.881c-0.16-0.309-0.4-0.631-0.664-0.863
	c-0.83-0.729-2.268-1.201-3.335-0.754c-1.064,0.445-1.858,1.693-1.681,2.857c0.211,1.393,1.617,2.068,2.884,1.545
	c0.455-0.186,0.784-0.553,0.859-1.043c0.052-0.346-0.04-0.715-0.199-1.018c-0.125-0.242-0.303-0.416-0.524-0.57
	c-0.188-0.133-0.504-0.199-0.721-0.1c-0.147,0.068-0.281,0.225-0.317,0.383c-0.036,0.162-0.005,0.342,0.074,0.486
	c0.041,0.076,0.1,0.162,0.164,0.221c0.067,0.057,0.145,0.107,0.229,0.135c0.175,0.055,0.349-0.023,0.489-0.133
	c0.176-0.135,0.22-0.389,0.118-0.557c-0.078-0.131-0.098-0.205-0.18-0.312c0.211,0.178,0.428,0.377,0.553,0.627
	c0.033,0.068,0.062,0.143,0.079,0.217c0.023,0.096,0.039,0.207,0.034,0.305c-0.025,0.518-0.441,0.926-0.916,1.076
	c-0.249,0.078-0.582,0.131-0.844,0.098c-0.237-0.033-0.51-0.131-0.704-0.277c-0.218-0.162-0.535-0.492-0.623-0.754
	C29.242,5.36,29.319,4.727,29.599,4.2c0.369-0.695,1.001-1.172,1.803-1.188c1.362-0.025,2.747,0.844,2.898,2.264
	c0.039,0.359,0.045,0.807-0.045,1.16c-0.191,0.758-0.515,1.523-1.111,2.045c-0.537,0.471-1.165,0.855-1.842,1.086
	c-0.511,0.174-1.062,0.295-1.596,0.367c-0.64,0.086-1.411,0.016-2.04-0.115c-0.55-0.113-1.062-0.348-1.477-0.729
	c-0.751-0.691-1.196-1.73-1.358-2.723c-0.073-0.449-0.081-0.902-0.074-1.354c-0.029-0.045-0.063-0.08-0.102-0.109
	c-0.089,0.133-0.201,0.254-0.303,0.377c-0.885,1.076-2.154,1.674-3.471,2.047c-0.346,0.098-0.694,0.182-1.043,0.258
	c-1.273,0.285-2.514,0.578-3.718,1.092c-1.24,0.529-2.439,1.174-3.554,1.932c-0.31,0.211-0.613,0.432-0.909,0.662
	c-0.262,0.205-0.517,0.42-0.762,0.645c-0.763,0.703-1.462,1.488-2.015,2.369c-0.586,0.932-0.986,1.938-1.211,3.016
	c-0.027,0.131-0.059,0.264-0.079,0.396c-0.749,4.865,3.097,8.488,7.16,9.061c0.004,0.025,0.009,0.051,0.013,0.078
	c0.248-0.016,0.497-0.018,0.746-0.018c0.032,0,0.061,0.006,0.087,0.014c1.49,0.051,2.968-0.326,4.222-1.215l0.197-0.146
	c0.04-0.031,0.082-0.057,0.122-0.088c1.277-1.031,2.145-1.891,2.735-2.602c0.081-0.102,0.246-0.311,0.368-0.473
	c0.028-0.039,0.06-0.08,0.086-0.117c0,0,0.57-0.713,1.04-2.176c0.25,0.01,0.534,0.01,0.585,0.018c0.731,0.1,1.46,0.277,2.144,0.557
	c3.541,1.445,4.507,6.035,3.896,9.451c-0.187,1.037-0.583,2.32-1.202,3.188c-1.392,1.953-3.556,3.021-5.608,4.133
	c-0.941,0.512-1.879,1.025-2.789,1.588c0.053-0.033-0.244-0.977-0.28-1.076c-0.217-0.594-0.68-1.098-1.201-1.441
	c-0.648-0.426-1.396-0.758-2.15-0.936c-1.332-0.312-2.696-0.166-4.046-0.209c-1.171-0.037-2.412-0.143-3.442-0.756
	c-0.562-0.334-1.028-0.893-1.318-1.477c-0.557-1.124-0.564-2.587,0.266-3.581c0.797-0.955,2.273-1.303,3.39-0.719
	c1.169,0.613,1.531,2.227,0.727,3.287c-0.747,0.979-2.852,0.537-2.728-0.586c0.522,0.633,1.354,0.818,1.888,0.406
	c0.546-0.422,0.568-1.309,0.05-1.982c-0.303-0.391-0.723-0.617-1.129-0.658l0.002-0.006c-0.013,0-0.023,0.002-0.035,0
	c-0.062-0.004-0.12-0.002-0.181,0.002c-0.022,0.002-0.046,0.004-0.069,0.006c-0.032,0.004-0.064,0.008-0.097,0.016
	c-1.087,0.184-1.172,1.461-1.17,1.459c-0.045,0.359-0.006,0.73,0.119,1.047c0.532,1.346,2.183,1.691,3.321,0.887
	c1.338-0.943,1.393-2.846,0.228-3.947c-1.348-1.273-3.578-1.195-5.062-0.213c-3.109,2.057-2.573,7.408,0.384,9.35
	c2.767,1.813,7.582,0.514,8.614,4.455c0.082,0.312,0.142,0.631,0.199,0.948c0.053,0.011,0.107,0.019,0.165,0.025
	c1.49-1.969,3.799-3.646,5.959-4.73c2.203-1.104,4.473-1.871,6.505-3.312c1.383-0.981,2.654-2.146,3.701-3.484
	C35.422,29.918,36.122,27.565,35.892,25.276z M17.414,23.028c1.344-1.77,4.836-2.885,4.836-2.885
	C20.638,23.006,17.414,23.028,17.414,23.028z M23.324,18.262c0,0-2.072,1.17-4.985,3.129c0,0,1.449-2.055,5.186-5.391
	C23.524,16,23.772,17.098,23.324,18.262z M24.259,14.522c-0.229-0.377-2.159-3.389-5.285-3.395c-1.2-0.102-2.425,0.203-3.396,0.879
	c-0.995,0.695-1.612,1.719-1.739,2.883c-0.125,1.146,0.349,2.334,1.178,3.172c0.458,0.496,0.665,1.34,0.479,2
	c-0.094,0.336-0.332,0.768-0.924,0.908c-0.557,0.133-1.079-0.156-1.355-0.562c0-0.021,0-0.043,0.001-0.062
	c0.022-0.281,0.181-0.568,0.426-0.629c0.067-0.018,0.138-0.016,0.205-0.004c0.036,0.006,0.071,0.014,0.105,0.025
	c0.061,0.018,0.121,0.053,0.183,0.014c0.05-0.033,0.079-0.105,0.098-0.166c0.017-0.055,0.02-0.113,0.008-0.168
	c-0.027-0.123-0.084-0.277-0.168-0.348c-0.142-0.117-0.336-0.193-0.525-0.197l-0.002-0.008c-0.007,0.002-0.012,0.008-0.019,0.01
	c-0.04,0-0.079,0-0.117,0.008c-0.062,0.014-0.13,0.039-0.185,0.078c-0.163,0.113-0.305,0.307-0.363,0.525
	c-0.084,0.221-0.078,0.455-0.015,0.662c0.175,0.566,0.768,1.07,1.449,1.07c0.106,0,0.215-0.012,0.324-0.037
	c0.542-0.131,0.926-0.506,1.081-1.061c0.142-0.502,0.074-1.1-0.145-1.604c0.223,0.158,0.462,0.295,0.717,0.4
	c0.395,0.166,0.789,0.248,1.171,0.248c0.846,0,1.634-0.398,2.26-1.168c0.474-0.582,0.669-1.389,0.522-2.158
	c-0.139-0.732-0.572-1.35-1.188-1.695c-0.626-0.352-1.435-0.334-2.06,0.043c-0.552,0.332-0.857,0.881-0.841,1.508
	c0.018,0.666,0.43,1.299,1.002,1.537c0.467,0.191,0.946,0.09,1.348-0.289l-0.004-0.006c0.174-0.104,0.309-0.344,0.381-0.537
	c0.033-0.09,0.039-0.184,0.016-0.277c-0.026-0.102-0.071-0.223-0.162-0.281c-0.114-0.076-0.234-0.025-0.354-0.006
	c-0.069,0.012-0.139,0.021-0.209,0.027c-0.133,0.01-0.269,0.002-0.396-0.037c-0.434-0.125-0.684-0.564-0.709-0.998
	c0.003-0.152,0.072-0.629,0.803-0.709c0.04-0.004,0.08-0.008,0.121-0.01c0.035,0,0.075,0,0.114,0
	c0.296,0.006,0.588,0.076,0.845,0.221c0.562,0.316,0.956,0.881,1.083,1.551c0.135,0.707-0.044,1.449-0.479,1.982
	c-0.844,1.037-2.004,1.35-3.181,0.857c-0.443-0.186-0.842-0.465-1.18-0.803c-0.018-0.02-0.034-0.043-0.054-0.062l-0.005,0.006
	c-0.754-0.789-1.182-1.889-1.065-2.947c0.142-1.297,0.849-2.115,1.479-2.602c0.451-0.283,1.108-0.635,1.873-0.857
	c0.76-0.17,1.565-0.178,2.316,0.01c1.142,0.283,2.217,1.07,2.944,2.186c0.147,0.238,0.289,0.502,0.427,0.785
	c0.118,0.264,0.223,0.539,0.302,0.828c-0.313,0.285-0.619,0.582-0.931,0.869c-0.694,0.643-1.358,1.312-1.991,2.016
	c-0.944,1.051-1.894,2.098-2.772,3.203c-0.257,0.322-0.506,0.648-0.754,0.977c-0.236,0.312-0.454,0.719-0.862,0.826
	c-0.432,0.111-0.951-0.107-1.34-0.279c-0.899-0.402-1.604-1.182-2.156-1.977c-0.96-1.385-1.621-3.193-1.633-4.889
	c-0.012-1.635,0.682-3.186,1.892-4.283c1.392-1.262,3.195-2.186,5.07-2.424c0.586-0.074,1.179-0.102,1.767-0.061
	c1.063,0.074,2.194,0.26,3.112,0.834c0.874,0.545,1.6,1.266,1.946,2.254c0.183,0.52,0.199,1.092-0.025,1.602
	C24.614,14.167,24.446,14.352,24.259,14.522z"/>
</svg>
